<svg width="17" height="17" viewBox="0 0 17 17" fill="none" xmlns="http://www.w3.org/2000/svg">
<path d="M10.4712 5.97434C12.3605 7.84012 12.3346 10.8314 10.4826 12.6686C10.4791 12.6724 10.475 12.6764 10.4712 12.6802L8.34622 14.7765C6.47198 16.6255 3.4227 16.6252 1.54875 14.7765C-0.325493 12.9279 -0.325493 9.91934 1.54875 8.07069L2.72211 6.91314C3.03328 6.60617 3.56914 6.81019 3.58521 7.244C3.6057 7.79685 3.70619 8.35229 3.89162 8.88867C3.95443 9.07029 3.90955 9.27119 3.772 9.40689L3.35816 9.81515C2.47192 10.6894 2.44412 12.113 3.32164 12.9959C4.20781 13.8874 5.66439 13.8927 6.55736 13.0118L8.68237 10.9157C9.57382 10.0363 9.57009 8.61483 8.68237 7.73908C8.56533 7.62384 8.44745 7.53431 8.35536 7.47176C8.29022 7.42763 8.23643 7.36909 8.19829 7.30081C8.16015 7.23254 8.13871 7.15641 8.13568 7.07851C8.12316 6.74886 8.24155 6.40917 8.5056 6.14869L9.17137 5.49186C9.34596 5.31963 9.61983 5.29848 9.82228 5.43786C10.0541 5.59757 10.2713 5.77709 10.4712 5.97434ZM14.9279 1.57755C13.0539 -0.271168 10.0046 -0.271418 8.1304 1.57755L6.0054 3.6739C6.00161 3.67765 5.9975 3.6817 5.99402 3.68544C4.14204 5.52262 4.11608 8.51395 6.0054 10.3797C6.20534 10.577 6.42248 10.7565 6.65432 10.9162C6.85676 11.0556 7.13067 11.0344 7.30523 10.8622L7.971 10.2053C8.23504 9.94486 8.35343 9.60517 8.34091 9.27553C8.33788 9.19763 8.31645 9.1215 8.27831 9.05322C8.24016 8.98494 8.18638 8.9264 8.12123 8.88227C8.02915 8.81973 7.91126 8.73019 7.79423 8.61496C6.9065 7.7392 6.90277 6.31774 7.79423 5.4383L9.91923 3.34226C10.8122 2.46133 12.2688 2.46663 13.155 3.35817C14.0325 4.24101 14.0047 5.66459 13.1184 6.53888L12.7046 6.94714C12.567 7.08284 12.5222 7.28374 12.585 7.46537C12.7704 8.00174 12.8709 8.55718 12.8914 9.11003C12.9075 9.54384 13.4433 9.74786 13.7545 9.4409L14.9278 8.28335C16.8021 6.43472 16.8021 3.42621 14.9279 1.57755Z" fill="white" fill-opacity="0.7"/>
</svg>
