<svg width="15" height="19" viewBox="0 0 15 19" fill="none" xmlns="http://www.w3.org/2000/svg">
<path d="M7.31041 0.255127C5.41331 0.257335 3.59455 1.00177 2.2531 2.32514C0.911642 3.64851 0.157031 5.44275 0.154793 7.31428C0.152521 8.84369 0.658926 10.3316 1.59632 11.5498C1.59632 11.5498 1.79148 11.8033 1.82335 11.8398L7.31041 18.2239L12.8001 11.8366C12.8287 11.8026 13.0245 11.5498 13.0245 11.5498L13.0251 11.5478C13.9621 10.3302 14.4682 8.84299 14.466 7.31428C14.4638 5.44275 13.7092 3.64851 12.3677 2.32514C11.0263 1.00177 9.20751 0.257335 7.31041 0.255127ZM7.31041 9.88124C6.79577 9.88124 6.29269 9.73069 5.86479 9.44863C5.43689 9.16657 5.10338 8.76567 4.90643 8.29661C4.70949 7.82756 4.65796 7.31143 4.75836 6.81349C4.85876 6.31555 5.10658 5.85816 5.47048 5.49916C5.83439 5.14016 6.29803 4.89568 6.80277 4.79664C7.30752 4.69759 7.8307 4.74843 8.30616 4.94271C8.78162 5.137 9.18801 5.46602 9.47392 5.88815C9.75984 6.31029 9.91245 6.80658 9.91245 7.31428C9.91159 7.99482 9.63717 8.64724 9.14938 9.12846C8.66158 9.60967 8.00025 9.88039 7.31041 9.88124Z" fill="white" fill-opacity="0.7"/>
</svg>
